<svg xmlns="http://www.w3.org/2000/svg" width="782" height="428" viewBox="0 0 782 428"><defs><style>.a{fill:#1d92b2;opacity:0.706;}</style></defs><path class="a" d="M759.072,428H22.927A266.206,266.206,0,0,1,7.944,255.374a277.7,277.7,0,0,1,22.783-60.036,307.152,307.152,0,0,1,36.05-54.328,346.5,346.5,0,0,1,47.744-47.334,387.848,387.848,0,0,1,57.867-39.054A424.851,424.851,0,0,1,238.8,25.134,454.668,454.668,0,0,1,312.2,6.5a481.062,481.062,0,0,1,157.6,0,454.665,454.665,0,0,1,73.395,18.636,424.86,424.86,0,0,1,66.417,29.488,387.858,387.858,0,0,1,57.867,39.054,346.5,346.5,0,0,1,47.745,47.334,307.156,307.156,0,0,1,36.05,54.328,277.7,277.7,0,0,1,22.783,60.036A266.2,266.2,0,0,1,759.073,428Z"/></svg>